<svg xmlns="http://www.w3.org/2000/svg" width="1600" height="620" viewBox="0 0 1600 620" role="img" aria-labelledby="title desc">
<title id="title">VLA-Radar 项目主视觉</title>
<desc id="desc">面向 VLA、WAM 与机器人基础模型的研究雷达，从论文发现到证据追溯。</desc>
<defs>
  <linearGradient id="bg" x1="0" y1="0" x2="1" y2="1"><stop stop-color="#071522"/><stop offset=".55" stop-color="#102943"/><stop offset="1" stop-color="#1d4f78"/></linearGradient>
  <radialGradient id="glow"><stop stop-color="#7ec8ff" stop-opacity=".9"/><stop offset="1" stop-color="#7ec8ff" stop-opacity="0"/></radialGradient>
  <linearGradient id="panel" x1="0" y1="0" x2="1" y2="1"><stop stop-color="#ffffff" stop-opacity=".16"/><stop offset="1" stop-color="#ffffff" stop-opacity=".05"/></linearGradient>
  <filter id="blur"><feGaussianBlur stdDeviation="18"/></filter>
</defs>
<rect width="1600" height="620" rx="28" fill="url(#bg)"/>
<circle cx="1245" cy="284" r="245" fill="none" stroke="#8bd1ff" stroke-opacity=".12" stroke-width="2"/>
<circle cx="1245" cy="284" r="190" fill="none" stroke="#8bd1ff" stroke-opacity=".22" stroke-width="2"/>
<circle cx="1245" cy="284" r="135" fill="none" stroke="#8bd1ff" stroke-opacity=".34" stroke-width="2"/>
<circle cx="1245" cy="284" r="80" fill="none" stroke="#8bd1ff" stroke-opacity=".46" stroke-width="2"/>
<path d="M1245 284 L1390 92 A245 245 0 0 1 1487 260 Z" fill="#65bfff" fill-opacity=".24"/>
<line x1="1000" y1="284" x2="1490" y2="284" stroke="#8bd1ff" stroke-opacity=".22"/>
<line x1="1245" y1="39" x2="1245" y2="529" stroke="#8bd1ff" stroke-opacity=".22"/>
<circle cx="1245" cy="284" r="9" fill="#d8f3ff"/>
<circle cx="1245" cy="284" r="42" fill="url(#glow)" filter="url(#blur)"/>
<g fill="#a9ddff">
  <circle cx="1128" cy="151" r="7"/><circle cx="1422" cy="192" r="6"/><circle cx="1378" cy="388" r="7"/><circle cx="1089" cy="355" r="5"/>
</g>
<text x="74" y="78" fill="#9db2c7" font-size="18" letter-spacing="5" font-family="Arial,Helvetica,sans-serif">PAPERS  ×  BENCHMARKS  ×  EVIDENCE  ×  EMBODIED AI</text>
<text x="72" y="200" fill="#7ec8ff" font-size="92" font-weight="700" font-family="Arial,Helvetica,sans-serif">VLA-</text>
<text x="300" y="200" fill="#f4f8fc" font-size="92" font-weight="700" font-family="Arial,Helvetica,sans-serif">Radar</text>
<rect x="75" y="234" width="76" height="5" rx="3" fill="#62b9ef"/>
<text x="175" y="252" fill="#eef6ff" font-size="34" font-weight="600" font-family="'Noto Sans SC','Microsoft YaHei',Arial,sans-serif">面向 VLA / WAM / 机器人基础模型的研究雷达</text>
<text x="74" y="305" fill="#a9c8df" font-size="25" font-family="'Noto Sans SC','Microsoft YaHei',Arial,sans-serif">从论文发现、深度阅读，到 Benchmark 对齐、结果比较与证据追溯</text>
<g transform="translate(74 365)">
  <g><rect width="170" height="92" rx="18" fill="url(#panel)" stroke="#9bd6ff" stroke-opacity=".24"/><text x="22" y="38" fill="#fff" font-size="23" font-weight="700" font-family="'Noto Sans SC','Microsoft YaHei',Arial,sans-serif">论文发现</text><text x="22" y="69" fill="#9fc2db" font-size="16" font-family="'Noto Sans SC','Microsoft YaHei',Arial,sans-serif">持续追踪前沿工作</text></g>
  <path d="M182 46h42" stroke="#72c5f5" stroke-width="3"/><path d="m216 36 10 10-10 10" fill="none" stroke="#72c5f5" stroke-width="3"/>
  <g transform="translate(238)"><rect width="170" height="92" rx="18" fill="url(#panel)" stroke="#9bd6ff" stroke-opacity=".24"/><text x="22" y="38" fill="#fff" font-size="23" font-weight="700" font-family="'Noto Sans SC','Microsoft YaHei',Arial,sans-serif">深度阅读</text><text x="22" y="69" fill="#9fc2db" font-size="16" font-family="'Noto Sans SC','Microsoft YaHei',Arial,sans-serif">理解方法与边界</text></g>
  <path d="M420 46h42" stroke="#72c5f5" stroke-width="3"/><path d="m454 36 10 10-10 10" fill="none" stroke="#72c5f5" stroke-width="3"/>
  <g transform="translate(476)"><rect width="190" height="92" rx="18" fill="url(#panel)" stroke="#9bd6ff" stroke-opacity=".24"/><text x="22" y="38" fill="#fff" font-size="23" font-weight="700" font-family="'Noto Sans SC','Microsoft YaHei',Arial,sans-serif">Benchmark 对齐</text><text x="22" y="69" fill="#9fc2db" font-size="16" font-family="'Noto Sans SC','Microsoft YaHei',Arial,sans-serif">统一评测语境</text></g>
  <path d="M678 46h42" stroke="#72c5f5" stroke-width="3"/><path d="m712 36 10 10-10 10" fill="none" stroke="#72c5f5" stroke-width="3"/>
  <g transform="translate(734)"><rect width="170" height="92" rx="18" fill="url(#panel)" stroke="#9bd6ff" stroke-opacity=".24"/><text x="22" y="38" fill="#fff" font-size="23" font-weight="700" font-family="'Noto Sans SC','Microsoft YaHei',Arial,sans-serif">证据追溯</text><text x="22" y="69" fill="#9fc2db" font-size="16" font-family="'Noto Sans SC','Microsoft YaHei',Arial,sans-serif">回到原始来源</text></g>
</g>
<g transform="translate(1038 488)">
  <rect width="472" height="82" rx="20" fill="#071522" fill-opacity=".58" stroke="#8bd1ff" stroke-opacity=".26"/>
  <g fill="#fff" text-anchor="middle" font-family="Arial,Helvetica,sans-serif">
    <text x="72" y="35" font-size="28" font-weight="700" >110</text><text x="72" y="59" font-size="14" fill="#a9c8df">Papers</text>
    <text x="184" y="35" font-size="28" font-weight="700" >64</text><text x="184" y="59" font-size="14" fill="#a9c8df">Benchmarks</text>
    <text x="302" y="35" font-size="28" font-weight="700" >199</text><text x="302" y="59" font-size="14" fill="#a9c8df">Settings</text>
    <text x="414" y="35" font-size="28" font-weight="700" >1091</text><text x="414" y="59" font-size="14" fill="#a9c8df">Results</text>
  </g>
</g>
<text x="1120" y="84" fill="#d7efff" font-size="18" font-family="Arial,Helvetica,sans-serif">Papers</text>
<text x="1418" y="166" fill="#d7efff" font-size="18" font-family="Arial,Helvetica,sans-serif">Benchmarks</text>
<text x="1372" y="420" fill="#d7efff" font-size="18" font-family="Arial,Helvetica,sans-serif">Evidence</text>
<text x="1008" y="389" fill="#d7efff" font-size="18" font-family="Arial,Helvetica,sans-serif">Methods</text>
</svg>